<svg xmlns="http://www.w3.org/2000/svg" viewBox="0 0 86.73 69.44"><path fill-rule="evenodd" d="M84.91 63.59c-7.57-2.33-15.1-5.89-17.17-14.41-1.74-7.06 1.65-15.35 6.66-20.31 3.15-3.13 7.31-5.92 9.42-10 1.82-3.47.31-7.12-3.77-7.27-6.05-.18-12.64 6.29-18.66 4.3-4.06-1.34-4.89-7-7.07-10.07-1.4-2.01-3.36-3.55-5.64-4.44-4.7-1.9-9.96-1.85-14.62.13C28.38 4.1 26.34 10 22.35 14.39c-.13.15-.25.31-.36.48-3.43 2.31-5.25 2.36-8.65-.58C11.13 12.38 8.87 9 5.73 8.65-.86 8-.89 15.31 1.31 19.46 3.37 23.33 6.67 26.31 8 30.6c1.32 4.52.96 9.35-1 13.63C4.55 50.08.86 57 5.18 62.93c4.05 5.6 11.75 4.83 17.58 3 3.51-1.07 6.87-2.69 10.48-3.42 4.73-1 9.27.21 13.71 1.83 7.13 2.6 13.26 5 20.94 4.91 5.25 0 11.92.77 17-.8 1.07-.33 1.81-1.3 1.84-2.41V66c0-1.12-.75-2.1-1.82-2.41ZM33.47 39.45c-5.15-.13-9.21-4.4-9.09-9.55-.12-5.15 3.94-9.42 9.09-9.55 5.15.13 9.21 4.4 9.09 9.55.12 5.15-3.94 9.42-9.09 9.55Zm20.19-.72a5.311 5.311 0 0 1-5.28-5.33c.01-2.93 2.39-5.3 5.32-5.29s5.3 2.38 5.3 5.31c0 1.41-.56 2.77-1.56 3.77s-2.36 1.55-3.78 1.54Z" fill="currentColor" /></svg>